<svg width="24" height="24" viewBox="0 0 24 24" fill="none" xmlns="http://www.w3.org/2000/svg">
<path d="M19.993 9.10811C20.376 9.50811 20.68 9.97111 20.886 10.4761C21.3014 11.4901 21.3036 12.6265 20.892 13.6421C20.6852 14.1511 20.3842 14.6166 20.005 15.0141C19.3191 15.7341 18.5811 16.4026 17.797 17.0141C17.007 17.6303 16.1731 18.1881 15.302 18.6831C13.5419 19.6801 11.6489 20.4215 9.67996 20.8851C8.66381 21.1273 7.59394 20.9833 6.67796 20.4811C6.23205 20.2361 5.83725 19.9078 5.51496 19.5141C5.19919 19.1268 4.96301 18.6809 4.81996 18.2021C3.62096 14.3001 3.79796 9.89011 4.95396 5.97211C5.56296 3.91511 7.59696 2.62311 9.69096 3.09811C13.571 3.97811 17.211 6.24511 19.993 9.10811Z" stroke="#85C742" stroke-width="2" stroke-linecap="round" stroke-linejoin="round"/>
<path d="M14.0443 13.0342C14.7143 12.5292 14.7143 11.5452 14.0443 11.0242C13.5669 10.6457 13.0666 10.2971 12.5463 9.98019C12.0235 9.66066 11.4826 9.37184 10.9263 9.11519C10.1563 8.76519 9.29629 9.25419 9.17329 10.0882C8.98415 11.3413 8.95056 12.6129 9.07328 13.8742C9.08984 14.0687 9.15239 14.2565 9.25577 14.4221C9.35915 14.5877 9.5004 14.7264 9.66789 14.8267C9.83539 14.927 10.0243 14.9861 10.2191 14.999C10.4139 15.012 10.609 14.9784 10.7883 14.9012C11.37 14.6618 11.9358 14.3856 12.4823 14.0742C13.0248 13.7633 13.5465 13.4176 14.0443 13.0392V13.0342Z" stroke="#85C742" stroke-width="2" stroke-linecap="round" stroke-linejoin="round"/>
</svg>
